<svg xmlns="http://www.w3.org/2000/svg" fill="none" viewBox="0 0 124 144"><g clip-path="url(#a)"><g clip-path="url(#b)"><path fill="#FA0" d="M0 36v24l20.666 12L0 84v24l62.002 36v-24l-20.67-12 20.67-12V72L0 36Z"/><path fill="#2470E7" d="M62.002 72v24l20.666-12v48l20.666-12V72L124 60V36L62.002 72Z"/><path fill="#00C5A7" d="m0 36 62.002 36 20.666-12L62 48h41.333L124 36 62.002 0l-20.67 12 20.67 12H20.666L0 36Z"/></g></g><defs><clipPath id="a"><path fill="#fff" d="M0 0h124v144H0z"/></clipPath><clipPath id="b"><path fill="#fff" d="M0 0h124v144H0z"/></clipPath></defs></svg>