<?xml version="1.0" standalone="no"?>
<!DOCTYPE svg PUBLIC "-//W3C//DTD SVG 20010904//EN"
 "http://www.w3.org/TR/2001/REC-SVG-20010904/DTD/svg10.dtd">
<svg version="1.0" xmlns="http://www.w3.org/2000/svg"
 width="595.000000pt" height="595.000000pt" viewBox="0 0 595.000000 595.000000"
 preserveAspectRatio="xMidYMid meet">
<metadata>
Created by potrace 1.14, written by Peter Selinger 2001-2017
</metadata>
<g transform="translate(0.000000,595.000000) scale(0.100000,-0.100000)"
fill="#000000" stroke="none">
<path d="M2805 5854 c-88 -52 -169 -99 -180 -104 -11 -6 -33 -19 -50 -29 -16
-10 -46 -27 -65 -38 -19 -11 -97 -57 -174 -102 -76 -44 -140 -81 -143 -81 -2
0 -20 -11 -39 -24 l-35 -23 403 -234 c221 -129 411 -238 423 -244 13 -7 -255
-12 -835 -15 l-855 -5 -40 -24 c-22 -13 -56 -33 -75 -44 -19 -10 -87 -50 -150
-86 -63 -37 -137 -81 -165 -97 -27 -16 -59 -34 -70 -41 -11 -7 -27 -15 -35
-19 -8 -4 -35 -20 -60 -35 -49 -29 -102 -60 -192 -111 l-58 -33 0 -497 0 -497
135 -78 c75 -43 144 -82 153 -88 55 -32 182 -106 212 -123 122 -69 336 -195
342 -200 6 -6 -131 -89 -677 -405 l-160 -92 0 -499 0 -498 240 -139 c132 -76
247 -143 255 -148 8 -6 65 -39 125 -74 149 -86 979 -568 1013 -588 15 -9 43
-25 62 -36 90 -51 513 -296 663 -385 92 -54 172 -98 176 -98 5 0 12 -6 14 -12
3 -7 6 212 6 488 l1 500 -34 20 c-41 22 -232 133 -261 151 -11 7 -31 18 -45
25 -14 7 -27 15 -30 18 -5 5 -16 11 -99 58 -25 14 -80 45 -121 70 -41 25 -91
54 -110 64 -108 62 -126 72 -138 81 -9 7 36 38 160 110 294 170 736 426 883
512 77 45 205 119 285 166 79 46 154 89 165 96 11 7 26 15 34 19 8 4 46 27 85
50 39 23 73 41 76 39 3 -2 5 -446 5 -988 0 -880 1 -984 15 -977 8 4 83 47 165
95 83 48 164 95 180 105 131 75 236 137 267 156 21 13 39 24 41 24 3 0 44 24
93 53 l89 53 0 988 1 988 42 29 c24 16 45 29 47 29 2 0 98 55 212 121 114 67
222 130 238 139 17 10 71 41 120 70 50 29 113 65 140 81 l50 28 2 498 3 498
-98 56 c-53 30 -185 106 -292 169 -107 62 -211 122 -230 133 -19 11 -47 27
-62 36 -14 9 -73 43 -130 76 -57 33 -112 65 -123 72 -11 7 -31 18 -45 25 -14
7 -27 15 -30 18 -5 5 -16 11 -99 58 -25 14 -80 45 -121 70 -41 25 -95 56 -120
70 -25 14 -110 63 -190 110 -80 47 -161 94 -180 105 -51 29 -519 301 -630 366
-52 31 -99 58 -105 60 -5 2 -26 14 -45 26 -19 12 -42 24 -50 27 -9 3 -83 -35
-175 -88z m1832 -1908 c-17 -11 -41 -25 -52 -31 -11 -7 -119 -69 -240 -140
-121 -70 -240 -139 -265 -153 -25 -13 -49 -28 -55 -32 -9 -7 -51 -31 -130 -74
-11 -6 -30 -19 -43 -28 -22 -16 -25 -15 -80 14 -31 17 -61 34 -67 38 -25 19
-308 180 -316 180 -5 0 -9 5 -9 10 0 6 -4 10 -9 10 -5 0 -55 27 -111 60 -56
33 -103 60 -105 60 -3 0 -165 99 -173 105 -2 1 378 2 843 2 l845 0 -33 -21z"/>
</g>
</svg>
